<svg width="296" height="94" viewBox="0 0 296 94" fill="none" xmlns="http://www.w3.org/2000/svg">
<path d="M112.521 55.373H106V32.2503H112.521V34.4237C114.173 32.645 116.524 31.681 118.949 31.7877C123.573 31.7877 126.303 34.609 126.303 40.529V55.3743H119.779V40.6677C120.012 39.045 118.887 37.5397 117.264 37.3063C117.024 37.2717 116.781 37.2663 116.541 37.2917C114.141 37.2917 112.517 39.2797 112.517 44.4597L112.521 55.373Z" fill="white"/>
<path d="M136.848 40.9034H145.682C145.496 38.4087 143.786 37.3034 141.472 37.3034C139.256 37.1981 137.294 38.7234 136.848 40.8967V40.9034ZM151.832 53.5701C148.987 54.9994 145.858 55.7727 142.675 55.8367C134.808 55.8367 129.958 51.2581 129.958 43.8127C129.958 36.5981 133.842 31.7887 141.472 31.7887C148.687 31.7887 152.248 36.4127 152.248 42.7967V46.2181H136.71C137.358 48.8074 139.252 50.3341 142.814 50.3341C145.236 50.2247 147.604 49.5767 149.747 48.4381L151.832 53.5701Z" fill="white"/>
<path d="M161.823 43.811C161.823 47.7884 163.44 50.3324 166.818 50.3324C170.195 50.3324 171.766 47.7897 171.766 43.811C171.766 39.8324 170.194 37.291 166.818 37.291C163.442 37.291 161.823 39.835 161.823 43.811ZM155.302 43.811C155.302 36.5964 159.14 31.787 166.818 31.787C174.495 31.787 178.284 36.5964 178.284 43.811C178.284 51.0257 174.491 55.835 166.818 55.835C159.144 55.835 155.302 51.0257 155.302 43.811Z" fill="white"/>
<path d="M185.225 32.2497L189.989 45.983L194.845 32.2497H201.829L192.762 55.3724H187.26L178.193 32.2497H185.225Z" fill="white"/>
<path d="M205.015 23H211.306V29.104H205.015V23ZM204.882 37.752H202.198V32.2493H208.35C210.661 32.2493 211.402 32.6214 211.402 34.7934V55.3734H204.882V37.752Z" fill="white"/>
<path d="M230.635 39.0474C228.721 37.9754 226.581 37.3741 224.391 37.2914C222.865 37.2914 221.848 37.7528 221.848 38.7234C221.848 41.6368 233.64 40.2514 233.64 48.1581C233.64 53.6154 229.479 55.8354 224.02 55.8354C220.527 55.9781 217.093 54.8994 214.311 52.7834L217.316 47.7901C219.259 49.2994 221.612 50.1861 224.068 50.3328C225.501 50.3328 227.12 50.1474 227.12 48.6208C227.12 45.1541 215.327 47.3261 215.327 38.7234C215.327 33.7301 219.767 31.7901 224.623 31.7901C227.548 31.7688 230.435 32.4501 233.04 33.7794L230.635 39.0474Z" fill="white"/>
<path d="M238.129 23H244.419V29.104H238.129V23ZM237.995 37.752H235.311V32.2493H241.462C243.774 32.2493 244.515 32.6214 244.515 34.7934V55.3734H237.994L237.995 37.752Z" fill="white"/>
<path d="M254.689 43.811C254.689 47.7884 256.308 50.3324 259.684 50.3324C263.06 50.3324 264.632 47.7897 264.632 43.811C264.632 39.8324 263.061 37.291 259.684 37.291C256.307 37.291 254.689 39.835 254.689 43.811ZM248.168 43.811C248.168 36.5964 252.008 31.787 259.684 31.787C267.36 31.787 271.151 36.5964 271.151 43.811C271.151 51.0257 267.357 55.835 259.684 55.835C252.011 55.835 248.168 51.0257 248.168 43.811Z" fill="white"/>
<path d="M281.376 55.373H274.856V32.2503H281.376V34.4237C283.028 32.645 285.379 31.681 287.804 31.7877C292.428 31.7877 295.157 34.609 295.157 40.529V55.3743H288.636V40.6677C288.871 39.045 287.745 37.541 286.124 37.3063C285.884 37.2717 285.641 37.2663 285.4 37.2917C283 37.2917 281.376 39.2797 281.376 44.4597V55.373Z" fill="white"/>
<path d="M75.0187 46.6502C75.0187 44.4928 75.0374 42.3342 75.008 40.1768C74.9987 39.5475 75.1294 39.3022 75.84 39.3088C80.156 39.3448 84.472 39.3448 88.788 39.3088C89.4294 39.3088 89.588 39.5075 89.588 40.1235C89.564 44.4715 89.564 48.8195 89.588 53.1662C89.588 53.7755 89.4427 53.9915 88.796 53.9875C84.48 53.9608 80.1654 53.9528 75.8494 53.9875C75.1267 53.9875 75.0054 53.7328 75.0134 53.1142C75.0334 50.9608 75.0187 48.8035 75.0187 46.6502Z" fill="white"/>
<path d="M7.23075 53.9582C5.13341 53.9582 3.03741 53.9316 0.941414 53.9729C0.252081 53.9862 -0.00525229 53.8222 8.1042e-05 53.0836C0.0307477 48.7956 0.0214144 44.5062 8.1042e-05 40.2182C8.1042e-05 39.6156 0.0827477 39.3062 0.825414 39.3116C5.11341 39.3502 9.40141 39.3422 13.6907 39.3116C14.3387 39.3116 14.5547 39.4662 14.5507 40.1502C14.5187 44.4702 14.5187 48.7902 14.5507 53.1102C14.5507 53.7622 14.3974 53.9836 13.7067 53.9676C11.5521 53.9276 9.39075 53.9569 7.23075 53.9582Z" fill="white"/>
<path d="M44.704 25.7076C42.5707 25.7076 40.4494 25.6809 38.324 25.7222C37.6387 25.7369 37.464 25.5102 37.4667 24.8542C37.492 20.5689 37.492 16.2836 37.4667 11.9996C37.4667 11.3329 37.648 11.1436 38.316 11.1476C42.632 11.1769 46.9494 11.1769 51.2667 11.1476C51.9254 11.1476 52.1294 11.3169 52.1254 11.9929C52.096 16.2782 52.096 20.5636 52.1254 24.8476C52.1254 25.4956 51.972 25.7356 51.2747 25.7222C49.0854 25.6796 46.8947 25.7076 44.704 25.7076Z" fill="white"/>
<path d="M44.7438 82.1274C42.5852 82.1274 40.4278 82.1101 38.2692 82.1394C37.6758 82.1474 37.4492 82.0194 37.4532 81.3608C37.4852 77.0448 37.4852 72.7301 37.4532 68.4141C37.4532 67.7288 37.6705 67.5634 38.3238 67.5674C42.6398 67.5928 46.9558 67.5928 51.2705 67.5674C51.9372 67.5674 52.1345 67.7554 52.1305 68.4261C52.1038 72.7101 52.0972 76.9941 52.1385 81.2781C52.1465 82.0421 51.8718 82.1528 51.2118 82.1408C49.0585 82.1048 46.9025 82.1274 44.7438 82.1274Z" fill="white"/>
<path d="M16.6481 27.7634C16.6481 25.8901 16.6748 24.0154 16.6335 22.1421C16.6188 21.4567 16.8468 21.2887 17.5081 21.2927C21.2575 21.3221 25.0041 21.3221 28.7521 21.2927C29.3721 21.2927 29.5708 21.4501 29.5655 22.0927C29.5375 25.8714 29.5375 29.6501 29.5655 33.4261C29.5655 34.0621 29.3788 34.2381 28.7561 34.2327C25.0095 34.2047 21.2601 34.1914 17.5135 34.2327C16.7508 34.2407 16.6215 33.9661 16.6375 33.2887C16.6721 31.4514 16.6495 29.6087 16.6481 27.7634Z" fill="white"/>
<path d="M23.1546 59.0794C24.9973 59.0794 26.8413 59.1007 28.6826 59.0674C29.3026 59.0554 29.58 59.142 29.5706 59.8794C29.528 63.6607 29.5386 67.4407 29.5613 71.222C29.5613 71.794 29.428 71.9927 28.824 71.9887C25.012 71.962 21.1986 71.962 17.3853 71.9887C16.7626 71.9887 16.648 71.7754 16.652 71.2194C16.672 67.438 16.672 63.658 16.652 59.8767C16.652 59.2687 16.768 59.0434 17.4373 59.0607C19.3413 59.1114 21.248 59.0794 23.1546 59.0794Z" fill="white"/>
<path d="M66.4397 71.9724C64.5971 71.9724 62.7531 71.9497 60.9117 71.987C60.2877 71.999 60.0171 71.911 60.0251 71.1737C60.0664 67.3937 60.0557 63.6124 60.0251 59.8324C60.0251 59.2604 60.1584 59.059 60.7611 59.0644C64.5731 59.0897 68.3851 59.0897 72.1984 59.0644C72.8117 59.0644 72.9371 59.2684 72.9344 59.8324C72.9131 63.6137 72.9011 67.3937 72.9437 71.175C72.9517 71.907 72.6771 72.003 72.0571 71.991C70.1837 71.959 68.3091 71.9804 66.4344 71.9804L66.4397 71.9724Z" fill="white"/>
<path d="M66.4762 21.3808C68.3828 21.3808 70.2882 21.3981 72.1935 21.3688C72.7268 21.3608 72.9015 21.5021 72.8975 22.0541C72.8775 25.8661 72.8775 29.6781 72.8975 33.4901C72.8975 34.0621 72.6935 34.1568 72.1828 34.1568C68.4028 34.1381 64.6215 34.1301 60.8428 34.1648C60.1762 34.1648 60.0562 33.9221 60.0602 33.3341C60.0802 29.6168 60.0882 25.8995 60.0602 22.1835C60.0602 21.4688 60.3268 21.3555 60.9535 21.3675C62.7895 21.4021 64.6322 21.3808 66.4762 21.3808Z" fill="white"/>
<path d="M64.7692 14.3287C63.5012 14.3287 62.2358 14.3087 60.9652 14.338C60.4318 14.35 60.2665 14.1674 60.2718 13.626C60.2998 11.122 60.2998 8.61802 60.2718 6.11402C60.2638 5.54336 60.4705 5.43002 60.9852 5.43536C63.5225 5.45536 66.0585 5.45536 68.5932 5.43536C69.1265 5.43536 69.3052 5.59269 69.2998 6.13802C69.2745 8.64336 69.2745 11.1474 69.2998 13.6514C69.2998 14.2207 69.0892 14.3487 68.5732 14.338C67.3052 14.3087 66.0372 14.3274 64.7692 14.3287Z" fill="white"/>
<path d="M24.7575 87.8463C23.5202 87.8463 22.2828 87.8209 21.0482 87.8596C20.4842 87.8756 20.2735 87.7423 20.2802 87.1289C20.3148 84.6569 20.3082 82.1836 20.2802 79.7103C20.2802 79.1449 20.4202 78.9289 21.0242 78.9356C23.5575 78.9649 26.0908 78.9583 28.6322 78.9356C29.1655 78.9356 29.3402 79.0876 29.3335 79.6383C29.3055 82.1423 29.3055 84.6463 29.3335 87.1516C29.3335 87.6849 29.2122 87.8729 28.6548 87.8543C27.3575 87.8196 26.0562 87.8463 24.7575 87.8463Z" fill="white"/>
<path d="M76.4802 17.3741C76.4802 16.3581 76.5028 15.3421 76.4708 14.3287C76.4548 13.8141 76.5762 13.5887 77.1495 13.5967C79.2748 13.6247 81.4002 13.6154 83.5242 13.5967C84.0202 13.5967 84.1908 13.7794 84.1842 14.2714C84.1655 16.3967 84.1655 18.5221 84.1842 20.6461C84.1842 21.1621 83.9842 21.2954 83.5055 21.2914C81.3802 21.2767 79.2548 21.2701 77.1308 21.3021C76.5748 21.3101 76.5055 21.0354 76.5108 20.6021C76.5228 19.5261 76.5108 18.4474 76.5108 17.3714L76.4802 17.3741Z" fill="white"/>
<path d="M9.28942 72.0038C10.3041 72.0038 11.3188 72.0265 12.3308 71.9945C12.8734 71.9758 13.1068 72.0892 13.1201 72.7132C13.1628 74.7958 12.9108 76.8785 13.1068 78.9585C13.1641 79.5665 12.9028 79.7078 12.3401 79.7012C10.2801 79.6732 8.22142 79.6732 6.16142 79.7012C5.58275 79.7092 5.38675 79.5252 5.39608 78.9358C5.42542 76.8772 5.42542 74.8172 5.39608 72.7585C5.38675 72.1705 5.57209 71.9758 6.15209 71.9958C7.19742 72.0305 8.24408 72.0052 9.28942 72.0038Z" fill="white"/>
<path d="M54.5733 3.18845C54.5733 3.98045 54.552 4.77511 54.5826 5.56711C54.6013 6.04711 54.4706 6.23378 53.948 6.23378C52.332 6.20045 50.712 6.20711 49.096 6.23378C48.5826 6.24178 48.3506 6.11645 48.3613 5.54445C48.3933 3.92711 48.388 2.30845 48.3613 0.692446C48.352 0.137779 48.5546 -0.00888728 49.0826 0.000446055C50.7013 0.0284461 52.3186 0.0284461 53.9346 0.000446055C54.4253 -0.00888728 54.6133 0.127113 54.592 0.63778C54.556 1.49245 54.5826 2.34978 54.5826 3.20578L54.5733 3.18845Z" fill="white"/>
<path d="M35.0173 90.1184C35.0173 89.2957 35.0386 88.4704 35.008 87.6477C34.9906 87.1877 35.1413 87.0557 35.604 87.0624C37.2506 87.0904 38.8986 87.0904 40.5453 87.0624C41.1053 87.0531 41.2426 87.2677 41.2346 87.7917C41.208 89.3757 41.208 90.9597 41.2346 92.5437C41.2453 93.1064 41.1013 93.3304 40.496 93.3157C38.8813 93.2757 37.2653 93.2811 35.6493 93.3157C35.152 93.3251 34.9826 93.1944 35.004 92.6864C35.0453 91.8304 35.0186 90.9744 35.0173 90.1184Z" fill="white"/>
<path d="M31.0257 17.1184C28.9817 17.1184 28.9817 17.1184 28.9817 15.0984C28.9817 13.0784 28.9817 13.0717 31.035 13.0717C33.0217 13.0717 33.0217 13.0717 33.0217 15.0544V15.1504C33.0217 17.1171 33.0217 17.1171 31.0257 17.1184Z" fill="white"/>
<path d="M58.6293 76.1691C60.6093 76.1691 60.6093 76.1691 60.6106 78.1397C60.6106 80.2197 60.6106 80.2197 58.5439 80.2197C56.5719 80.2197 56.5719 80.2197 56.5706 78.2437C56.5679 76.1704 56.5679 76.1704 58.6293 76.1691Z" fill="white"/>
<path d="M78.54 62.1608C78.54 60.1608 78.54 60.1608 80.556 60.1608C82.572 60.1608 82.556 60.1608 82.556 62.1715C82.556 64.2315 82.556 64.2315 80.5894 64.2302C78.54 64.2275 78.54 64.2275 78.54 62.1608Z" fill="white"/>
<path d="M9.11613 29.065C11.0535 29.065 11.0535 29.065 11.0535 30.981C11.0535 33.1223 11.0535 33.1223 8.8788 33.1223C7.03747 33.1223 7.03747 33.1223 7.03613 31.3143V31.1236C7.03613 29.061 7.03613 29.061 9.11613 29.065" fill="white"/>
<path d="M49.6083 43.9979C47.4376 44.0059 45.6723 42.2513 45.6656 40.0819C45.6656 40.0459 45.6656 40.0086 45.6669 39.9726C45.6149 37.7739 47.3576 35.9486 49.5576 35.8979C49.6003 35.8966 49.643 35.8966 49.6856 35.8966C51.923 35.9179 53.7189 37.7486 53.6976 39.9859C53.6763 42.2233 51.8456 44.0193 49.6083 43.9979ZM45.1016 31.8446C37.0163 31.8099 30.435 38.3353 30.4003 46.4206C30.3656 54.5046 36.891 61.0873 44.9763 61.1219C53.0603 61.1566 59.6429 54.6313 59.6776 46.5459V46.4593C59.6483 38.4153 53.1456 31.8939 45.1016 31.8446Z" fill="white"/>
</svg>
