<svg width="597" height="711" viewBox="0 0 597 711" fill="none" xmlns="http://www.w3.org/2000/svg">
<g id="hand-phone">
<g id="&#194;&#180;phone">
<g id="phone16">
<path id="path822" fill-rule="evenodd" clip-rule="evenodd" d="M337.037 437.544C357.861 428.462 367.467 403.996 358.385 383.174L313.099 279.343L325.785 268.406L469.852 435.498L381.727 511.479L341.947 465.345L300.165 453.626L337.037 437.544Z" fill="#FED6B7"/>
</g>
<g id="phone15">
<path id="path826" fill-rule="evenodd" clip-rule="evenodd" d="M152.693 411.616C144.53 407.043 140.041 397.496 142.425 388.074L152.693 411.616Z" fill="#FED6B7"/>
</g>
<g id="phone14">
<path id="path830" fill-rule="evenodd" clip-rule="evenodd" d="M112.89 320.357L129.224 357.807L122.088 355.807C110.952 352.681 104.192 341.22 107.179 330.029C108.198 326.222 110.23 322.937 112.89 320.357Z" fill="#FED6B7"/>
</g>
<g id="phone13">
<path id="path834" fill-rule="evenodd" clip-rule="evenodd" d="M53.9241 264.909C56.9141 253.718 68.5431 246.886 79.6937 250.002L82.5542 250.804L104.273 300.601L68.8318 290.681C57.6872 287.564 50.9361 276.098 53.9241 264.909Z" fill="#FED6B7"/>
</g>
<g id="phone12">
<path id="path838" fill-rule="evenodd" clip-rule="evenodd" d="M461.94 400.458L348.635 498.157L452.997 619.196L596.556 556.583L461.94 400.458Z" fill="white"/>
</g>
<g id="phone11">
<path id="path842" fill-rule="evenodd" clip-rule="evenodd" d="M162.159 331.458L153.393 329.265C142.868 337.667 140.674 348.19 145.43 360.48L153.769 362.732C176.475 368.807 180.966 335.897 162.159 331.458Z" fill="#FFF3E9"/>
</g>
<g id="phone10">
<path id="path846" fill-rule="evenodd" clip-rule="evenodd" d="M192.338 456.82C192.464 457.109 192.807 457.245 193.098 457.118L343.046 391.718C343.337 391.591 343.472 391.247 343.345 390.958L214.019 94.4401C213.893 94.1505 213.549 94.0154 213.258 94.1423L63.3099 159.542C63.0191 159.669 62.8852 160.013 63.0116 160.302L192.338 456.82ZM72.6131 122.981L180.134 76.0854C200.958 67.0029 225.424 76.6113 234.506 97.4355L359.01 382.896C368.091 403.717 358.487 428.183 337.663 437.265L230.142 484.161C209.318 493.243 184.852 483.637 175.771 462.816L51.2671 177.355C42.1846 156.531 51.789 132.063 72.6131 122.981" fill="#49556D"/>
</g>
<g id="phone09">
<path id="path850" fill-rule="evenodd" clip-rule="evenodd" d="M158.054 96.359L102.495 120.591C100.99 121.247 100.296 123.016 100.952 124.521L100.953 124.523C101.61 126.029 103.378 126.722 104.883 126.066L160.442 101.834C161.947 101.177 162.641 99.41 161.984 97.9043L161.983 97.9019C161.327 96.3974 159.559 95.7023 158.054 96.359Z" fill="#808285"/>
</g>
<g id="phone08">
<path id="path854" fill-rule="evenodd" clip-rule="evenodd" d="M272.376 434.285C267.264 436.515 264.927 442.467 267.156 447.578C269.386 452.69 275.338 455.026 280.45 452.796C285.567 450.564 287.899 444.616 285.67 439.503C283.44 434.392 277.493 432.053 272.376 434.285Z" fill="#808285"/>
</g>
<g id="phone07">
<path id="path858" fill-rule="evenodd" clip-rule="evenodd" d="M213.536 95.0827L63.588 160.483C63.2971 160.609 63.1633 160.953 63.2896 161.243L192.616 457.76C192.743 458.05 193.085 458.184 193.376 458.057L343.323 392.657C343.615 392.53 343.751 392.187 343.625 391.897L214.298 95.38C214.172 95.0903 213.828 94.9553 213.536 95.0827Z" fill="white"/>
</g>
<g id="phone06">
<path id="path862" fill-rule="evenodd" clip-rule="evenodd" d="M362.194 351.147L350.934 360.857L340.148 345.871L253.465 225.594C235.436 200.58 248.54 183.757 263.262 171.062L365.581 313.039C374.174 324.963 372.662 342.124 362.194 351.147Z" fill="#FED6B7"/>
</g>
<g id="phone05">
<path id="path866" fill-rule="evenodd" clip-rule="evenodd" d="M141.28 389.387C138.296 400.575 145.026 412.149 156.187 415.157L194.137 425.383C205.295 428.392 216.918 421.667 219.906 410.477C222.897 399.287 216.184 387.725 205.002 384.712L167.053 374.482C155.871 371.469 144.269 378.194 141.28 389.387Z" fill="#FED6B7"/>
</g>
<g id="phone04">
<path id="path870" fill-rule="evenodd" clip-rule="evenodd" d="M203.574 388.476L194.806 386.289C184.282 394.691 182.086 405.212 186.848 417.504L195.183 419.755C217.892 425.831 222.378 392.917 203.574 388.476Z" fill="#FFF3E9"/>
</g>
<g id="phone03">
<path id="path874" fill-rule="evenodd" clip-rule="evenodd" d="M106.241 333.313C103.255 344.505 109.985 356.076 121.147 359.089L153.464 367.796C164.625 370.805 176.246 364.083 179.235 352.893C182.223 341.705 175.511 330.138 164.33 327.126L132.01 318.411C120.827 315.402 109.227 322.129 106.241 333.313Z" fill="#FED6B7"/>
</g>
<g id="phone02">
<path id="path878" fill-rule="evenodd" clip-rule="evenodd" d="M163.484 331.859L154.716 329.671C144.192 338.073 141.996 348.594 146.758 360.885L155.095 363.137C177.803 369.214 182.287 336.299 163.484 331.859Z" fill="#FFF3E9"/>
</g>
<path id="phone01" fill-rule="evenodd" clip-rule="evenodd" d="M259.838 174.673C261.475 173.066 263.178 171.518 264.905 170.029L285.512 198.624C274.106 203.412 265.328 186.084 259.838 174.673Z" fill="#FFF3E9"/>
</g>
<g id="icon">
<g id="icon19">
<path id="path938" d="M228.192 259.938C227.142 258.054 226.107 256.159 225.031 254.289C224.717 253.743 224.712 253.466 225.336 253.125C229.123 251.056 232.893 248.955 236.646 246.822C237.206 246.51 237.441 246.606 237.741 247.145C239.837 250.954 241.953 254.752 244.09 258.538C244.387 259.07 244.365 259.329 243.798 259.641C240.015 261.718 236.242 263.812 232.489 265.943C231.858 266.295 231.628 266.131 231.334 265.587C230.303 263.696 229.24 261.819 228.192 259.938Z" fill="#783293"/>
</g>
<g id="icon18">
<path id="path942" d="M172.535 299.32C170.703 300.341 168.86 301.338 167.049 302.395C166.453 302.742 166.149 302.724 165.794 302.076C163.733 298.316 161.637 294.573 159.531 290.838C159.237 290.312 159.159 290.001 159.81 289.644C163.575 287.591 167.317 285.496 171.048 283.382C171.615 283.066 171.879 283.096 172.208 283.696C174.283 287.485 176.386 291.258 178.517 295.016C178.834 295.586 178.808 295.854 178.197 296.176C176.295 297.19 174.422 298.268 172.535 299.32Z" fill="#783293"/>
</g>
<g id="icon17">
<path id="path946" d="M191.517 256.401C189.653 257.44 187.787 258.449 185.951 259.52C185.359 259.866 185.097 259.753 184.78 259.179C182.716 255.423 180.63 251.68 178.522 247.95C178.197 247.368 178.264 247.114 178.849 246.792C182.634 244.717 186.405 242.615 190.162 240.488C190.737 240.168 190.998 240.216 191.323 240.809C193.384 244.566 195.47 248.309 197.581 252.037C197.896 252.603 197.879 252.888 197.264 253.215C195.33 254.244 193.43 255.335 191.517 256.401Z" fill="#783293"/>
</g>
<g id="icon16">
<path id="path950" d="M219.017 305.665C217.131 306.716 215.238 307.751 213.367 308.828C212.852 309.124 212.592 309.122 212.275 308.545C210.202 304.759 208.102 300.99 205.973 297.236C205.639 296.637 205.748 296.387 206.321 296.072C210.103 293.993 213.874 291.892 217.63 289.77C218.212 289.445 218.476 289.514 218.799 290.101C220.861 293.856 222.941 297.602 225.063 301.324C225.442 301.987 225.255 302.218 224.673 302.529C222.775 303.545 220.902 304.615 219.017 305.665Z" fill="#783293"/>
</g>
<g id="icon15">
<path id="path954" d="M168.011 271.854C167.099 270.218 166.209 268.568 165.261 266.951C164.915 266.36 165.032 266.102 165.612 265.784C168.901 263.984 172.174 262.16 175.434 260.31C175.975 260.008 176.225 260.049 176.534 260.613C178.349 263.927 180.188 267.228 182.051 270.513C182.36 271.068 182.283 271.313 181.736 271.611C178.45 273.411 175.168 275.224 171.916 277.084C171.253 277.463 171.007 277.286 170.691 276.686C169.827 275.064 168.91 273.466 168.011 271.854Z" fill="#783293"/>
</g>
<g id="icon14">
<path id="path958" d="M188.939 296.042C190.548 295.145 192.169 294.266 193.761 293.341C194.297 293.028 194.582 292.969 194.932 293.618C196.736 296.941 198.585 300.238 200.446 303.53C200.724 304.03 200.705 304.268 200.175 304.559C196.832 306.391 193.501 308.248 190.183 310.127C189.639 310.43 189.435 310.3 189.168 309.812C187.345 306.499 185.505 303.197 183.646 299.904C183.351 299.373 183.342 299.12 183.935 298.809C185.623 297.926 187.273 296.97 188.939 296.042Z" fill="#783293"/>
</g>
<g id="icon13">
<path id="path962" d="M233.025 286.233C231.415 287.13 229.793 288.008 228.203 288.937C227.664 289.251 227.385 289.306 227.033 288.658C225.229 285.336 223.379 282.039 221.512 278.752C221.233 278.252 221.252 278.011 221.781 277.722C225.123 275.889 228.453 274.033 231.772 272.155C232.307 271.856 232.516 271.973 232.788 272.467C234.61 275.781 236.44 279.089 238.318 282.371C238.681 283.006 238.488 283.224 237.941 283.515C236.289 284.399 234.662 285.33 233.024 286.243L233.025 286.233Z" fill="#783293"/>
</g>
<g id="icon12">
<path id="path966" d="M208.429 242.023C210.094 241.095 211.767 240.183 213.417 239.23C213.879 238.963 214.1 239.001 214.366 239.486C216.204 242.825 218.06 246.155 219.933 249.475C220.211 249.975 220.079 250.157 219.633 250.405C216.322 252.229 213.015 254.063 209.731 255.933C209.149 256.257 208.926 256.104 208.643 255.588C206.851 252.331 205.048 249.08 203.215 245.848C202.867 245.223 203.045 244.995 203.598 244.7C205.219 243.837 206.818 242.921 208.429 242.023Z" fill="#783293"/>
</g>
<g id="icon11">
<path id="path970" d="M203.505 236.694C202.397 237.311 201.282 237.91 200.187 238.554C199.727 238.824 199.493 238.745 199.234 238.269C198.04 236.069 196.821 233.881 195.578 231.708C195.293 231.213 195.418 231.013 195.87 230.768C198.096 229.55 200.312 228.315 202.516 227.064C202.982 226.804 203.215 226.855 203.475 227.334C204.673 229.535 205.892 231.722 207.133 233.897C207.41 234.394 207.288 234.609 206.832 234.85C205.71 235.442 204.612 236.076 203.505 236.694Z" fill="#783293"/>
</g>
<g id="icon10">
<path id="path974" d="M204.342 320.39C203.261 320.993 202.168 321.573 201.108 322.208C200.623 322.496 200.374 322.482 200.082 321.943C198.909 319.767 197.699 317.61 196.47 315.463C196.195 314.969 196.212 314.712 196.743 314.424C198.97 313.216 201.18 311.977 203.389 310.721C203.855 310.461 204.081 310.509 204.343 310.993C205.538 313.194 206.757 315.381 208.001 317.556C208.26 318.022 208.246 318.245 207.75 318.5C206.6 319.101 205.476 319.758 204.342 320.39Z" fill="#783293"/>
</g>
<g id="icon09">
<path id="path978" d="M215.217 233.653C214.722 232.766 214.248 231.867 213.726 230.998C213.462 230.556 213.458 230.3 213.963 230.028C215.833 229.018 217.685 227.975 219.531 226.925C219.965 226.683 220.203 226.76 220.436 227.193C221.454 229.059 222.489 230.915 223.539 232.761C223.791 233.212 223.681 233.426 223.261 233.655C221.397 234.677 219.537 235.706 217.697 236.768C217.216 237.045 217.021 236.839 216.815 236.458C216.302 235.512 215.766 234.576 215.242 233.636L215.217 233.653Z" fill="#783293"/>
</g>
<g id="icon08">
<path id="path982" d="M183.118 314.081C184.004 313.588 184.902 313.113 185.77 312.593C186.235 312.312 186.494 312.298 186.81 312.836C187.861 314.635 188.654 316.577 189.838 318.298C190.184 318.801 190.025 319.052 189.53 319.32C187.717 320.299 185.919 321.301 184.133 322.328C183.631 322.617 183.37 322.551 183.092 322.032C182.115 320.219 181.112 318.42 180.085 316.636C179.79 316.127 179.857 315.867 180.374 315.602C181.304 315.123 182.206 314.591 183.118 314.081Z" fill="#783293"/>
</g>
<g id="icon07">
<path id="path986" d="M189.176 231.926C189.561 232.618 189.929 233.322 190.342 233.999C190.592 234.41 190.568 234.636 190.112 234.891C188.684 235.648 187.272 236.443 185.874 237.253C185.429 237.509 185.165 237.513 184.896 237.008C184.137 235.58 183.344 234.168 182.534 232.77C182.256 232.29 182.362 232.063 182.828 231.814C184.255 231.051 185.668 230.263 187.066 229.452C187.49 229.205 187.72 229.232 187.95 229.689C188.335 230.453 188.776 231.189 189.192 231.937L189.176 231.926Z" fill="#783293"/>
</g>
<g id="icon06">
<path id="path990" d="M214.41 317.381C214.01 316.662 213.627 315.931 213.199 315.227C212.96 314.834 213.028 314.645 213.435 314.425C214.887 313.648 216.327 312.846 217.751 312.02C218.236 311.739 218.461 311.86 218.709 312.322C219.456 313.718 220.227 315.102 221.022 316.473C221.305 316.959 221.288 317.225 220.752 317.506C219.323 318.258 217.914 319.049 216.519 319.866C216.089 320.116 215.877 320.084 215.649 319.63C215.268 318.862 214.828 318.128 214.41 317.381Z" fill="#783293"/>
</g>
<g id="icon05">
<path id="path994" d="M175.387 255.557C173.602 256.552 173.602 256.552 172.618 254.788C171.635 253.023 171.632 253.017 173.426 252.018C175.161 251.051 175.161 251.051 176.126 252.782L176.173 252.866C177.13 254.584 177.13 254.584 175.387 255.557Z" fill="#783293"/>
</g>
<g id="icon04">
<path id="path998" d="M228.245 293.701C229.975 292.738 229.975 292.738 230.935 294.458C231.948 296.275 231.948 296.275 230.142 297.281C228.42 298.241 228.42 298.241 227.457 296.516C226.445 294.706 226.445 294.706 228.245 293.701Z" fill="#783293"/>
</g>
<g id="icon03">
<path id="path1002" d="M238.819 271.773C237.845 270.025 237.845 270.025 239.606 269.044C241.367 268.063 241.353 268.071 242.332 269.827C243.335 271.626 243.335 271.626 241.616 272.583C239.825 273.578 239.825 273.578 238.819 271.773Z" fill="#783293"/>
</g>
<g id="icon02">
<path id="path1006" d="M162.065 276.658C163.757 275.715 163.757 275.715 164.69 277.388C165.732 279.259 165.732 279.259 163.833 280.318C162.224 281.214 162.224 281.214 161.343 279.635L161.25 279.469C160.246 277.667 160.246 277.667 162.065 276.658" fill="#783293"/>
</g>
<g id="icon01">
<path id="path1010" d="M204.705 269.991C202.812 271.054 200.416 270.381 199.354 268.489C199.337 268.458 199.319 268.425 199.302 268.393C198.187 266.498 198.82 264.055 200.717 262.94C200.754 262.918 200.791 262.897 200.829 262.876C202.793 261.806 205.253 262.531 206.324 264.496C207.394 266.46 206.669 268.92 204.705 269.991ZM194.852 261.568C187.772 265.474 185.2 274.378 189.105 281.457C193.01 288.536 201.915 291.109 208.994 287.204C216.073 283.299 218.646 274.394 214.741 267.315L214.699 267.239C210.757 260.227 201.902 257.696 194.852 261.568Z" fill="#783293"/>
</g>
</g>
</g>
</svg>
